<svg width="300" height="300" viewBox="0 0 300 300" fill="none" xmlns="http://www.w3.org/2000/svg">
<path d="M116.143 143.817C113.431 146.942 108.535 147.845 104.879 145.858L104.351 145.575C79.1548 132.16 62.689 123.371 60.5994 109C59.6965 102.701 62.2311 96.0343 67.4804 91.4144C77.3072 82.7551 91.5207 83.3266 100.285 89.5437C106.252 80.6078 119.318 74.9636 131.596 79.5815C138.148 82.0233 142.896 87.3463 144.301 93.5524C147.52 107.715 135.235 121.81 116.501 143.409L116.143 143.817Z" fill="#8A3738"/>
<path d="M183.568 143.689C186.281 146.814 191.177 147.718 194.833 145.73L195.361 145.448C220.557 132.032 237.023 123.243 239.113 108.873C240.015 102.574 237.481 95.9068 232.232 91.287C222.405 82.6276 208.191 83.1991 199.427 89.4163C193.46 80.4803 180.393 74.8362 168.116 79.4541C161.564 81.8958 156.816 87.2189 155.411 93.425C152.192 107.587 164.477 121.683 183.211 143.281L183.568 143.689Z" fill="#8A3738"/>
</svg>
