<svg width="300" height="300" viewBox="0 0 300 300" fill="none" xmlns="http://www.w3.org/2000/svg">
<ellipse cx="118" cy="123" rx="12" ry="14" fill="#79271B"/>
<ellipse cx="181" cy="123" rx="12" ry="14" fill="#79271B"/>
<path fill-rule="evenodd" clip-rule="evenodd" d="M185.382 102.065C190.002 102.47 194.457 101.613 197.652 100.522C198.698 100.165 199.876 100.621 200.32 101.633V101.633C200.764 102.644 200.305 103.828 199.264 104.197C195.584 105.498 190.433 106.523 185.033 106.05C179.098 105.53 172.795 103.187 167.923 97.3804C167.213 96.5342 167.423 95.2772 168.32 94.6326V94.6326C169.217 93.9879 170.459 94.2002 171.181 95.0363C175.22 99.7148 180.365 101.626 185.382 102.065Z" fill="#D0740F"/>
<path fill-rule="evenodd" clip-rule="evenodd" d="M114.742 101.6C110.122 102.004 105.667 101.148 102.472 100.057C101.426 99.7001 100.248 100.156 99.804 101.167V101.167C99.36 102.179 99.8188 103.363 100.86 103.731C104.54 105.033 109.691 106.057 115.091 105.585C121.026 105.065 127.329 102.721 132.201 96.9151C132.911 96.0689 132.701 94.8119 131.804 94.1673V94.1673C130.907 93.5226 129.665 93.7349 128.943 94.571C124.904 99.2495 119.759 101.161 114.742 101.6Z" fill="#D0740F"/>
</svg>
