<svg width="300" height="300" viewBox="0 0 300 300" fill="none" xmlns="http://www.w3.org/2000/svg">
<ellipse cx="118" cy="123" rx="12" ry="14" fill="#79271B"/>
<path fill-rule="evenodd" clip-rule="evenodd" d="M112.758 95.5301C108.994 98.5743 105.88 101.95 103.832 104.553C103.149 105.421 101.902 105.637 101 105V105C100.098 104.363 99.8802 103.114 100.56 102.244C102.784 99.3929 106.156 95.7252 110.242 92.4199C114.63 88.8716 119.993 85.6175 125.766 84.3633C126.846 84.1288 127.854 84.9051 128 86V86C128.146 87.0949 127.374 88.0931 126.298 88.3436C121.499 89.4614 116.822 92.2431 112.758 95.5301Z" fill="#D0740F"/>
<path fill-rule="evenodd" clip-rule="evenodd" d="M182.438 97.5674C177.818 97.1629 173.363 98.0191 170.168 99.1102C169.122 99.4672 167.944 99.0114 167.5 98V98C167.056 96.9886 167.515 95.8043 168.556 95.4359C172.236 94.1342 177.387 93.1098 182.787 93.5826C188.722 94.1023 195.025 96.4458 199.897 102.252C200.607 103.098 200.397 104.355 199.5 105V105C198.603 105.645 197.361 105.432 196.639 104.596C192.6 99.9177 187.455 98.0067 182.438 97.5674Z" fill="#D0740F"/>
<path fill-rule="evenodd" clip-rule="evenodd" d="M174.157 125.511C170.939 125.898 167.955 126.817 165.477 127.882C162.686 129.08 159.242 128.488 157.5 126V126C155.758 123.512 156.363 120.063 159.087 118.719C162.848 116.864 167.601 115.22 172.843 114.589C179.37 113.805 186.798 114.588 193.89 118.617C196.532 120.117 196.898 123.628 195 126V126C193.102 128.372 189.663 128.671 186.911 127.385C182.659 125.397 178.275 125.015 174.157 125.511Z" fill="#79271B"/>
</svg>
