<svg width="300" height="300" viewBox="0 0 300 300" fill="none" xmlns="http://www.w3.org/2000/svg">
<ellipse cx="117.634" cy="123" rx="12" ry="14" fill="#79271B"/>
<ellipse cx="183.634" cy="123" rx="12" ry="14" fill="#79271B"/>
<path fill-rule="evenodd" clip-rule="evenodd" d="M112.392 95.5301C108.628 98.5743 105.514 101.95 103.466 104.553C102.782 105.421 101.536 105.637 100.634 105V105C99.7315 104.363 99.5141 103.114 100.194 102.244C102.418 99.3929 105.789 95.7252 109.876 92.4199C114.264 88.8716 119.627 85.6175 125.4 84.3633C126.48 84.1288 127.488 84.9051 127.634 86V86C127.78 87.0949 127.008 88.0931 125.932 88.3436C121.133 89.4614 116.456 92.2431 112.392 95.5301Z" fill="#D0740F"/>
<path fill-rule="evenodd" clip-rule="evenodd" d="M182.072 97.5674C177.452 97.1629 172.997 98.0191 169.802 99.1102C168.756 99.4672 167.578 99.0114 167.134 98V98C166.69 96.9886 167.149 95.8043 168.19 95.4359C171.87 94.1342 177.021 93.1098 182.421 93.5826C188.356 94.1023 194.659 96.4458 199.531 102.252C200.241 103.098 200.031 104.355 199.134 105V105C198.237 105.645 196.995 105.432 196.273 104.596C192.234 99.9177 187.089 98.0067 182.072 97.5674Z" fill="#D0740F"/>
</svg>
