<svg width="300" height="300" viewBox="0 0 300 300" fill="none" xmlns="http://www.w3.org/2000/svg">
<path fill-rule="evenodd" clip-rule="evenodd" d="M151.281 154.393C148.171 154.894 144.81 155.713 141.656 156.642C140.332 157.033 138.924 156.314 138.5 155V155C138.076 153.686 138.797 152.274 140.121 151.882C143.465 150.892 147.084 150.005 150.485 149.457C154.588 148.795 158.822 148.546 161.851 149.553C163.433 150.078 165.009 151.058 165.842 152.817C166.67 154.563 166.498 156.521 165.815 158.431C164.885 161.026 162.78 164.174 159.367 167.995C157.565 170.012 157.533 173.071 159.263 175.151C160.503 176.643 161.668 178.179 162.678 179.706C163.835 181.453 164.829 183.246 165.499 184.993C166.159 186.717 166.569 188.566 166.358 190.356C166.134 192.248 165.225 193.944 163.532 195.164C161.929 196.319 159.801 196.921 157.296 197.125C152.698 197.498 146.021 196.586 136.724 194.074C135.391 193.714 134.621 192.328 135 191V191C135.379 189.672 136.765 188.907 138.098 189.266C147.169 191.711 153.158 192.444 156.891 192.141C158.907 191.977 160.025 191.528 160.609 191.107C161.104 190.751 161.324 190.346 161.392 189.769C161.473 189.09 161.336 188.103 160.83 186.782C160.332 185.484 159.54 184.023 158.509 182.466C156.447 179.351 153.584 176.079 150.745 173.28V173.28C149.746 172.295 149.753 170.681 150.76 169.705V169.705C157.243 163.422 160.202 159.273 161.107 156.744C161.541 155.535 161.373 155.062 161.324 154.957C161.28 154.864 161.099 154.572 160.274 154.297C158.49 153.704 155.318 153.742 151.281 154.393Z" fill="black"/>
<path d="M197.767 209.752C199.378 212.292 202.8 213.472 205.643 212.439L206.053 212.292C225.615 205.377 238.401 200.841 241.459 190.738C242.789 186.308 241.689 181.242 238.416 177.353C232.29 170.066 222.012 168.938 215.039 172.458C211.717 165.39 202.936 159.919 193.612 161.909C188.638 162.955 184.649 166.267 182.968 170.576C179.121 180.407 186.426 191.868 197.554 209.42L197.767 209.752Z" fill="#8A3738"/>
</svg>
